<mxfile host="app.diagrams.net" modified="2022-10-15T12:34:32.205Z" agent="5.0 (Windows NT 10.0; Win64; x64) AppleWebKit/537.36 (KHTML, like Gecko) Chrome/106.0.0.0 Safari/537.36 Edg/106.0.1370.42" etag="h_gBDgSE7Lj3gZbmU9PV" version="20.4.0" type="github" pages="2">
  <diagram id="7GIwbOB5SM6qESzrf8ED" name="Netty_Thread">
    <mxGraphModel dx="1413" dy="827" grid="1" gridSize="10" guides="1" tooltips="1" connect="1" arrows="1" fold="1" page="1" pageScale="1" pageWidth="827" pageHeight="1169" math="0" shadow="0">
      <root>
        <mxCell id="0" />
        <mxCell id="1" parent="0" />
        <mxCell id="btjND5Opq8muyW93EfVp-1" value="Boss Group&lt;br&gt;" style="rounded=1;whiteSpace=wrap;html=1;verticalAlign=top;fillColor=#f8cecc;strokeColor=#b85450;" vertex="1" parent="1">
          <mxGeometry x="200" y="170" width="200" height="120" as="geometry" />
        </mxCell>
        <mxCell id="btjND5Opq8muyW93EfVp-9" style="edgeStyle=orthogonalEdgeStyle;rounded=0;orthogonalLoop=1;jettySize=auto;html=1;" edge="1" parent="1" source="btjND5Opq8muyW93EfVp-2" target="btjND5Opq8muyW93EfVp-6">
          <mxGeometry relative="1" as="geometry" />
        </mxCell>
        <mxCell id="btjND5Opq8muyW93EfVp-10" value="" style="group" vertex="1" connectable="0" parent="1">
          <mxGeometry x="207" y="380" width="223" height="130" as="geometry" />
        </mxCell>
        <mxCell id="btjND5Opq8muyW93EfVp-5" value="&lt;br&gt;&lt;br&gt;&lt;br&gt;&lt;br&gt;&lt;br&gt;NioEventLoop" style="ellipse;whiteSpace=wrap;html=1;aspect=fixed;" vertex="1" parent="btjND5Opq8muyW93EfVp-10">
          <mxGeometry x="32.5" y="10" width="120" height="120" as="geometry" />
        </mxCell>
        <mxCell id="btjND5Opq8muyW93EfVp-6" value="step1:&lt;br&gt;select" style="rounded=1;whiteSpace=wrap;html=1;" vertex="1" parent="btjND5Opq8muyW93EfVp-10">
          <mxGeometry x="60" width="65" height="30" as="geometry" />
        </mxCell>
        <mxCell id="btjND5Opq8muyW93EfVp-7" value="step2:&lt;br&gt;processSelectedKeys" style="rounded=1;whiteSpace=wrap;html=1;" vertex="1" parent="btjND5Opq8muyW93EfVp-10">
          <mxGeometry x="82.5" y="55" width="130" height="30" as="geometry" />
        </mxCell>
        <mxCell id="btjND5Opq8muyW93EfVp-8" value="step3:&lt;br&gt;runAllTasks" style="rounded=1;whiteSpace=wrap;html=1;" vertex="1" parent="btjND5Opq8muyW93EfVp-10">
          <mxGeometry y="55" width="65" height="30" as="geometry" />
        </mxCell>
        <mxCell id="btjND5Opq8muyW93EfVp-13" value="" style="html=1;shadow=0;dashed=0;align=center;verticalAlign=middle;shape=mxgraph.arrows2.jumpInArrow;dy=2.4;dx=21.2;arrowHead=14.6;flipV=0;flipH=0;direction=south;" vertex="1" parent="btjND5Opq8muyW93EfVp-10">
          <mxGeometry x="137" y="10" width="31" height="39" as="geometry" />
        </mxCell>
        <mxCell id="btjND5Opq8muyW93EfVp-45" value="Accept&lt;br&gt;" style="text;html=1;resizable=0;autosize=1;align=center;verticalAlign=middle;points=[];fillColor=none;strokeColor=none;rounded=0;" vertex="1" parent="btjND5Opq8muyW93EfVp-10">
          <mxGeometry x="137" y="-10" width="60" height="30" as="geometry" />
        </mxCell>
        <mxCell id="btjND5Opq8muyW93EfVp-19" value="" style="group" vertex="1" connectable="0" parent="1">
          <mxGeometry x="212.5" y="200" width="175" height="80" as="geometry" />
        </mxCell>
        <mxCell id="btjND5Opq8muyW93EfVp-2" value="NioEventLoop" style="rounded=1;whiteSpace=wrap;html=1;verticalAlign=top;" vertex="1" parent="btjND5Opq8muyW93EfVp-19">
          <mxGeometry width="175" height="80" as="geometry" />
        </mxCell>
        <mxCell id="btjND5Opq8muyW93EfVp-3" value="Selector" style="rounded=1;whiteSpace=wrap;html=1;" vertex="1" parent="btjND5Opq8muyW93EfVp-19">
          <mxGeometry x="12.5" y="40" width="70" height="30" as="geometry" />
        </mxCell>
        <mxCell id="btjND5Opq8muyW93EfVp-4" value="TaskQueue" style="rounded=1;whiteSpace=wrap;html=1;" vertex="1" parent="btjND5Opq8muyW93EfVp-19">
          <mxGeometry x="92.5" y="40" width="70" height="30" as="geometry" />
        </mxCell>
        <mxCell id="btjND5Opq8muyW93EfVp-28" value="" style="group" vertex="1" connectable="0" parent="1">
          <mxGeometry x="490" y="110" width="200" height="230" as="geometry" />
        </mxCell>
        <mxCell id="btjND5Opq8muyW93EfVp-14" value="Work Group&lt;br&gt;&lt;br&gt;&lt;br&gt;&lt;br&gt;&lt;br&gt;&lt;br&gt;&lt;br&gt;&lt;br&gt;...." style="rounded=1;whiteSpace=wrap;html=1;verticalAlign=top;fillColor=#f8cecc;strokeColor=#b85450;" vertex="1" parent="btjND5Opq8muyW93EfVp-28">
          <mxGeometry width="200" height="230" as="geometry" />
        </mxCell>
        <mxCell id="btjND5Opq8muyW93EfVp-20" value="" style="group" vertex="1" connectable="0" parent="btjND5Opq8muyW93EfVp-28">
          <mxGeometry x="10" y="30" width="175" height="80" as="geometry" />
        </mxCell>
        <mxCell id="btjND5Opq8muyW93EfVp-21" value="NioEventLoop" style="rounded=1;whiteSpace=wrap;html=1;verticalAlign=top;" vertex="1" parent="btjND5Opq8muyW93EfVp-20">
          <mxGeometry width="175" height="80" as="geometry" />
        </mxCell>
        <mxCell id="btjND5Opq8muyW93EfVp-22" value="Selector" style="rounded=1;whiteSpace=wrap;html=1;" vertex="1" parent="btjND5Opq8muyW93EfVp-20">
          <mxGeometry x="12.5" y="40" width="70" height="30" as="geometry" />
        </mxCell>
        <mxCell id="btjND5Opq8muyW93EfVp-23" value="TaskQueue" style="rounded=1;whiteSpace=wrap;html=1;" vertex="1" parent="btjND5Opq8muyW93EfVp-20">
          <mxGeometry x="92.5" y="40" width="70" height="30" as="geometry" />
        </mxCell>
        <mxCell id="btjND5Opq8muyW93EfVp-24" value="" style="group" vertex="1" connectable="0" parent="btjND5Opq8muyW93EfVp-28">
          <mxGeometry x="10" y="140" width="175" height="80" as="geometry" />
        </mxCell>
        <mxCell id="btjND5Opq8muyW93EfVp-25" value="NioEventLoop" style="rounded=1;whiteSpace=wrap;html=1;verticalAlign=top;" vertex="1" parent="btjND5Opq8muyW93EfVp-24">
          <mxGeometry width="175" height="80" as="geometry" />
        </mxCell>
        <mxCell id="btjND5Opq8muyW93EfVp-26" value="Selector" style="rounded=1;whiteSpace=wrap;html=1;" vertex="1" parent="btjND5Opq8muyW93EfVp-24">
          <mxGeometry x="12.5" y="40" width="70" height="30" as="geometry" />
        </mxCell>
        <mxCell id="btjND5Opq8muyW93EfVp-27" value="TaskQueue" style="rounded=1;whiteSpace=wrap;html=1;" vertex="1" parent="btjND5Opq8muyW93EfVp-24">
          <mxGeometry x="92.5" y="40" width="70" height="30" as="geometry" />
        </mxCell>
        <mxCell id="btjND5Opq8muyW93EfVp-29" value="" style="group" vertex="1" connectable="0" parent="1">
          <mxGeometry x="495" y="390" width="215" height="130" as="geometry" />
        </mxCell>
        <mxCell id="btjND5Opq8muyW93EfVp-30" value="&#xa;&lt;br style=&quot;color: rgb(0, 0, 0); font-family: Helvetica; font-size: 12px; font-style: normal; font-variant-ligatures: normal; font-variant-caps: normal; font-weight: 400; letter-spacing: normal; orphans: 2; text-align: center; text-indent: 0px; text-transform: none; widows: 2; word-spacing: 0px; -webkit-text-stroke-width: 0px; background-color: rgb(248, 249, 250); text-decoration-thickness: initial; text-decoration-style: initial; text-decoration-color: initial;&quot;&gt;&lt;br style=&quot;color: rgb(0, 0, 0); font-family: Helvetica; font-size: 12px; font-style: normal; font-variant-ligatures: normal; font-variant-caps: normal; font-weight: 400; letter-spacing: normal; orphans: 2; text-align: center; text-indent: 0px; text-transform: none; widows: 2; word-spacing: 0px; -webkit-text-stroke-width: 0px; background-color: rgb(248, 249, 250); text-decoration-thickness: initial; text-decoration-style: initial; text-decoration-color: initial;&quot;&gt;&lt;br style=&quot;color: rgb(0, 0, 0); font-family: Helvetica; font-size: 12px; font-style: normal; font-variant-ligatures: normal; font-variant-caps: normal; font-weight: 400; letter-spacing: normal; orphans: 2; text-align: center; text-indent: 0px; text-transform: none; widows: 2; word-spacing: 0px; -webkit-text-stroke-width: 0px; background-color: rgb(248, 249, 250); text-decoration-thickness: initial; text-decoration-style: initial; text-decoration-color: initial;&quot;&gt;&lt;br style=&quot;color: rgb(0, 0, 0); font-family: Helvetica; font-size: 12px; font-style: normal; font-variant-ligatures: normal; font-variant-caps: normal; font-weight: 400; letter-spacing: normal; orphans: 2; text-align: center; text-indent: 0px; text-transform: none; widows: 2; word-spacing: 0px; -webkit-text-stroke-width: 0px; background-color: rgb(248, 249, 250); text-decoration-thickness: initial; text-decoration-style: initial; text-decoration-color: initial;&quot;&gt;&lt;br style=&quot;color: rgb(0, 0, 0); font-family: Helvetica; font-size: 12px; font-style: normal; font-variant-ligatures: normal; font-variant-caps: normal; font-weight: 400; letter-spacing: normal; orphans: 2; text-align: center; text-indent: 0px; text-transform: none; widows: 2; word-spacing: 0px; -webkit-text-stroke-width: 0px; background-color: rgb(248, 249, 250); text-decoration-thickness: initial; text-decoration-style: initial; text-decoration-color: initial;&quot;&gt;&lt;span style=&quot;color: rgb(0, 0, 0); font-family: Helvetica; font-size: 12px; font-style: normal; font-variant-ligatures: normal; font-variant-caps: normal; font-weight: 400; letter-spacing: normal; orphans: 2; text-align: center; text-indent: 0px; text-transform: none; widows: 2; word-spacing: 0px; -webkit-text-stroke-width: 0px; background-color: rgb(248, 249, 250); text-decoration-thickness: initial; text-decoration-style: initial; text-decoration-color: initial; float: none; display: inline !important;&quot;&gt;NioEventLoop&lt;/span&gt;&#xa;&#xa;" style="ellipse;whiteSpace=wrap;html=1;aspect=fixed;" vertex="1" parent="btjND5Opq8muyW93EfVp-29">
          <mxGeometry x="32.5" y="10" width="120" height="120" as="geometry" />
        </mxCell>
        <mxCell id="btjND5Opq8muyW93EfVp-31" value="step1:&lt;br&gt;select" style="rounded=1;whiteSpace=wrap;html=1;" vertex="1" parent="btjND5Opq8muyW93EfVp-29">
          <mxGeometry x="60" width="65" height="30" as="geometry" />
        </mxCell>
        <mxCell id="btjND5Opq8muyW93EfVp-32" value="step2:&lt;br&gt;processSelectedKeys" style="rounded=1;whiteSpace=wrap;html=1;" vertex="1" parent="btjND5Opq8muyW93EfVp-29">
          <mxGeometry x="82.5" y="55" width="130" height="30" as="geometry" />
        </mxCell>
        <mxCell id="btjND5Opq8muyW93EfVp-33" value="step3:&lt;br&gt;runAllTasks" style="rounded=1;whiteSpace=wrap;html=1;" vertex="1" parent="btjND5Opq8muyW93EfVp-29">
          <mxGeometry y="55" width="65" height="30" as="geometry" />
        </mxCell>
        <mxCell id="btjND5Opq8muyW93EfVp-34" value="" style="html=1;shadow=0;dashed=0;align=center;verticalAlign=middle;shape=mxgraph.arrows2.jumpInArrow;dy=2.4;dx=21.2;arrowHead=14.6;flipV=0;flipH=0;direction=south;" vertex="1" parent="btjND5Opq8muyW93EfVp-29">
          <mxGeometry x="137" y="10" width="31" height="39" as="geometry" />
        </mxCell>
        <mxCell id="btjND5Opq8muyW93EfVp-46" value="Read/Write" style="text;html=1;resizable=0;autosize=1;align=center;verticalAlign=middle;points=[];fillColor=none;strokeColor=none;rounded=0;" vertex="1" parent="btjND5Opq8muyW93EfVp-29">
          <mxGeometry x="135" y="-10" width="80" height="30" as="geometry" />
        </mxCell>
        <mxCell id="btjND5Opq8muyW93EfVp-36" style="rounded=0;orthogonalLoop=1;jettySize=auto;html=1;entryX=0.5;entryY=0;entryDx=0;entryDy=0;edgeStyle=orthogonalEdgeStyle;" edge="1" parent="1" source="btjND5Opq8muyW93EfVp-25" target="btjND5Opq8muyW93EfVp-31">
          <mxGeometry relative="1" as="geometry" />
        </mxCell>
        <mxCell id="btjND5Opq8muyW93EfVp-42" value="" style="group" vertex="1" connectable="0" parent="1">
          <mxGeometry x="515" y="570" width="150" height="130" as="geometry" />
        </mxCell>
        <mxCell id="btjND5Opq8muyW93EfVp-38" value="Pipeline&lt;br&gt;&lt;br&gt;&lt;br&gt;&lt;br&gt;..." style="rounded=1;whiteSpace=wrap;html=1;verticalAlign=top;fillColor=#f8cecc;strokeColor=#b85450;" vertex="1" parent="btjND5Opq8muyW93EfVp-42">
          <mxGeometry width="150" height="130" as="geometry" />
        </mxCell>
        <mxCell id="btjND5Opq8muyW93EfVp-39" value="ChannelHandler" style="rounded=1;whiteSpace=wrap;html=1;" vertex="1" parent="btjND5Opq8muyW93EfVp-42">
          <mxGeometry x="17.5" y="30" width="115" height="30" as="geometry" />
        </mxCell>
        <mxCell id="btjND5Opq8muyW93EfVp-41" value="ChannelHandler" style="rounded=1;whiteSpace=wrap;html=1;" vertex="1" parent="btjND5Opq8muyW93EfVp-42">
          <mxGeometry x="17.5" y="88" width="115" height="30" as="geometry" />
        </mxCell>
        <mxCell id="btjND5Opq8muyW93EfVp-43" style="edgeStyle=orthogonalEdgeStyle;rounded=0;orthogonalLoop=1;jettySize=auto;html=1;exitX=0.75;exitY=1;exitDx=0;exitDy=0;curved=1;" edge="1" parent="1" source="btjND5Opq8muyW93EfVp-32" target="btjND5Opq8muyW93EfVp-38">
          <mxGeometry relative="1" as="geometry" />
        </mxCell>
        <mxCell id="btjND5Opq8muyW93EfVp-44" value="注册channel到Selector" style="edgeStyle=orthogonalEdgeStyle;curved=1;rounded=0;orthogonalLoop=1;jettySize=auto;html=1;entryX=0;entryY=0.5;entryDx=0;entryDy=0;" edge="1" parent="1" source="btjND5Opq8muyW93EfVp-7" target="btjND5Opq8muyW93EfVp-25">
          <mxGeometry relative="1" as="geometry" />
        </mxCell>
        <mxCell id="btjND5Opq8muyW93EfVp-51" style="edgeStyle=orthogonalEdgeStyle;rounded=0;orthogonalLoop=1;jettySize=auto;html=1;entryX=0;entryY=0.5;entryDx=0;entryDy=0;" edge="1" parent="1" source="btjND5Opq8muyW93EfVp-47" target="btjND5Opq8muyW93EfVp-1">
          <mxGeometry relative="1" as="geometry" />
        </mxCell>
        <mxCell id="btjND5Opq8muyW93EfVp-47" value="Client" style="rounded=1;whiteSpace=wrap;html=1;fillColor=#dae8fc;strokeColor=#6c8ebf;" vertex="1" parent="1">
          <mxGeometry x="70" y="165" width="70" height="30" as="geometry" />
        </mxCell>
        <mxCell id="btjND5Opq8muyW93EfVp-52" style="edgeStyle=orthogonalEdgeStyle;curved=1;rounded=0;orthogonalLoop=1;jettySize=auto;html=1;entryX=0;entryY=0.5;entryDx=0;entryDy=0;" edge="1" parent="1" source="btjND5Opq8muyW93EfVp-49" target="btjND5Opq8muyW93EfVp-1">
          <mxGeometry relative="1" as="geometry" />
        </mxCell>
        <mxCell id="btjND5Opq8muyW93EfVp-49" value="Client" style="rounded=1;whiteSpace=wrap;html=1;fillColor=#dae8fc;strokeColor=#6c8ebf;" vertex="1" parent="1">
          <mxGeometry x="70" y="215" width="70" height="30" as="geometry" />
        </mxCell>
        <mxCell id="btjND5Opq8muyW93EfVp-53" style="edgeStyle=orthogonalEdgeStyle;rounded=0;orthogonalLoop=1;jettySize=auto;html=1;entryX=0;entryY=0.5;entryDx=0;entryDy=0;" edge="1" parent="1" source="btjND5Opq8muyW93EfVp-50" target="btjND5Opq8muyW93EfVp-1">
          <mxGeometry relative="1" as="geometry" />
        </mxCell>
        <mxCell id="btjND5Opq8muyW93EfVp-50" value="Client" style="rounded=1;whiteSpace=wrap;html=1;fillColor=#dae8fc;strokeColor=#6c8ebf;" vertex="1" parent="1">
          <mxGeometry x="70" y="265" width="70" height="30" as="geometry" />
        </mxCell>
      </root>
    </mxGraphModel>
  </diagram>
  <diagram id="sg-1j8ViW24KC0lfQxRN" name="第 2 页">
    <mxGraphModel dx="989" dy="579" grid="1" gridSize="10" guides="1" tooltips="1" connect="1" arrows="1" fold="1" page="1" pageScale="1" pageWidth="827" pageHeight="1169" math="0" shadow="0">
      <root>
        <mxCell id="0" />
        <mxCell id="1" parent="0" />
      </root>
    </mxGraphModel>
  </diagram>
</mxfile>
